# xmcd
# 
# Track frame offsets:
#     150
#     22082
#     41827
#     61535
#     77262
#     98388
#     112971
#     134169
#     174286
#     199725
#     222527
# 
# Disc length: 3271
# 
# Revision: 3
# Processed by: cddbd v1.5.2PL0 Copyright (c) Steve Scherf et al.
# Submitted via: fre:ac v1.0.31
# 
DISCID=8d0cc50b
DTITLE=Robert Cray - Nothin' But Love
DYEAR=2012
DGENRE=Blues
TTITLE0=(Won't Be) Coming Home
TTITLE1=Worry
TTITLE2=I'll Always Remember You
TTITLE3=Side Dish
TTITLE4=A Memo
TTITLE5=Blues Get Off My Shoulder
TTITLE6=Fix This
TTITLE7=I'm Done Cryin'
TTITLE8=Great Big Old House
TTITLE9=Sadder Days
TTITLE10=You Belong To Me
EXTD=
EXTT0=
EXTT1=
EXTT2=
EXTT3=
EXTT4=
EXTT5=
EXTT6=
EXTT7=
EXTT8=
EXTT9=
EXTT10=
PLAYORDER=
